<svg xmlns="http://www.w3.org/2000/svg" width="412.554" height="361.719" viewBox="0 0 412.554 361.719">
  <g id="그룹_85" data-name="그룹 85" transform="translate(-754 -359.281)">
    <g id="다각형_1" data-name="다각형 1" transform="translate(859 546)" fill="#fff">
      <path d="M 201.1341400146484 174.5 L 0.8658638596534729 174.5 L 101 1.000259160995483 L 201.1341400146484 174.5 Z" stroke="none"/>
      <path d="M 101 2.00054931640625 L 1.73175048828125 174 L 200.2682495117188 174 L 101 2.00054931640625 M 101 0 L 202 175 L 0 175 L 101 0 Z" stroke="none" fill="#707070"/>
    </g>
    <g id="다각형_5" data-name="다각형 5" transform="translate(1061 534.281) rotate(180)" fill="#fff">
      <path d="M 201.1341400146484 174.5 L 0.8658638596534729 174.5 L 101 1.000259160995483 L 201.1341400146484 174.5 Z" stroke="none"/>
      <path d="M 101 2.00054931640625 L 1.73175048828125 174 L 200.2682495117188 174 L 101 2.00054931640625 M 101 0 L 202 175 L 0 175 L 101 0 Z" stroke="none" fill="#707070"/>
    </g>
    <g id="다각형_3" data-name="다각형 3" transform="translate(905.554 455.281) rotate(60)" fill="#fff">
      <path d="M 201.1341400146484 174.5 L 0.8658638596534729 174.5 L 101 1.000259160995483 L 201.1341400146484 174.5 Z" stroke="none"/>
      <path d="M 101 2.00054931640625 L 1.73175048828125 174 L 200.2682495117188 174 L 101 2.00054931640625 M 101 0 L 202 175 L 0 175 L 101 0 Z" stroke="none" fill="#707070"/>
    </g>
    <g id="다각형_6" data-name="다각형 6" transform="translate(1006.554 450.063) rotate(120)" fill="#fff">
      <path d="M 201.1341400146484 174.5 L 0.8658638596534729 174.5 L 101 1.000259160995483 L 201.1341400146484 174.5 Z" stroke="none"/>
      <path d="M 101 2.00054931640625 L 1.73175048828125 174 L 200.2682495117188 174 L 101 2.00054931640625 M 101 0 L 202 175 L 0 175 L 101 0 Z" stroke="none" fill="#707070"/>
    </g>
    <g id="다각형_2" data-name="다각형 2" transform="translate(914 630.219) rotate(-60)" fill="#fff">
      <path d="M 201.1341400146484 174.5 L 0.8658638596534729 174.5 L 101 1.000259160995483 L 201.1341400146484 174.5 Z" stroke="none"/>
      <path d="M 101 2.00054931640625 L 1.73175048828125 174 L 200.2682495117188 174 L 101 2.00054931640625 M 101 0 L 202 175 L 0 175 L 101 0 Z" stroke="none" fill="#707070"/>
    </g>
    <g id="다각형_4" data-name="다각형 4" transform="translate(1015 625) rotate(-120)" fill="#fff">
      <path d="M 201.1341400146484 174.5 L 0.8658638596534729 174.5 L 101 1.000259160995483 L 201.1341400146484 174.5 Z" stroke="none"/>
      <path d="M 101 2.00054931640625 L 1.73175048828125 174 L 200.2682495117188 174 L 101 2.00054931640625 M 101 0 L 202 175 L 0 175 L 101 0 Z" stroke="none" fill="#707070"/>
    </g>
  </g>
</svg>
