<svg xmlns="http://www.w3.org/2000/svg" width="402.232" height="350.464" viewBox="0 0 402.232 350.464">
  <g id="그룹_122" data-name="그룹 122" transform="translate(4578 -3763.768)">
    <g id="그룹_117" data-name="그룹 117">
      <g id="패스_4" data-name="패스 4" transform="translate(-4578 3766)" fill="none">
        <path d="M300,0,400,172.881,300,345.763H100L0,172.881,100,0Z" stroke="none"/>
        <path d="M 100.5768432617188 1 L 1.15521240234375 172.8813629150391 L 100.5767822265625 344.7627258300781 L 299.4232177734375 344.7627258300781 L 398.8447875976563 172.8813629150391 L 299.4232177734375 1 L 100.5768432617188 1 M 100.0000610351563 0 L 300 0 L 400 172.8813629150391 L 300 345.7627258300781 L 100 345.7627258300781 L 0 172.8813629150391 L 100.0000610351563 0 Z" stroke="none" fill="#aaa"/>
      </g>
      <line id="선_7" data-name="선 7" x2="199" y2="345" transform="translate(-4477.5 3766.5)" fill="none" stroke="#aaa" stroke-width="1"/>
      <line id="선_8" data-name="선 8" y1="345" x2="199" transform="translate(-4477.5 3766.5)" fill="none" stroke="#aaa" stroke-width="1"/>
      <line id="선_9" data-name="선 9" x2="398" transform="translate(-4577 3939)" fill="none" stroke="#aaa" stroke-width="1"/>
      <line id="선_10" data-name="선 10" x1="100" y2="172" transform="translate(-4577.5 3766.5)" fill="none" stroke="#aaa" stroke-width="1"/>
    </g>
    <g id="그룹_116" data-name="그룹 116" transform="translate(-20)">
      <line id="선_11" data-name="선 11" x1="199" y2="345" transform="translate(-4457.5 3766.5)" fill="none" stroke="red" stroke-linecap="round" stroke-width="4"/>
      <line id="선_12" data-name="선 12" x1="100" y1="173" transform="translate(-4258.5 3766.5)" fill="none" stroke="red" stroke-linecap="round" stroke-width="4"/>
      <line id="선_13" data-name="선 13" x1="99" y1="172" transform="translate(-4357.5 3939.5)" fill="none" stroke="red" stroke-linecap="round" stroke-width="4"/>
    </g>
  </g>
</svg>
