<svg xmlns="http://www.w3.org/2000/svg" width="404.465" height="348.232" viewBox="0 0 404.465 348.232">
  <g id="그룹_123" data-name="그룹 123" transform="translate(4560.232 -4242)">
    <g id="그룹_115" data-name="그룹 115" transform="translate(0 476)">
      <g id="다각형_8" data-name="다각형 8" transform="translate(-4558 3766)" fill="none">
        <path d="M300,0,400,172.881,300,345.763H100L0,172.881,100,0Z" stroke="none"/>
        <path d="M 100.5768432617188 1 L 1.15521240234375 172.8813171386719 L 100.5767822265625 344.7627258300781 L 299.4231567382813 344.7627258300781 L 398.8447875976563 172.8813629150391 L 299.4231567382813 1 L 100.5768432617188 1 M 100.0000610351563 0 L 299.9999389648438 0 L 400 172.8813629150391 L 299.9999389648438 345.7627258300781 L 100 345.7627258300781 L 0 172.8813171386719 L 100.0000610351563 0 Z" stroke="none" fill="#aaa"/>
      </g>
      <line id="선_7" data-name="선 7" x2="199" y2="345" transform="translate(-4457.5 3766.5)" fill="none" stroke="#aaa" stroke-width="1"/>
      <line id="선_8" data-name="선 8" y1="345" x2="199" transform="translate(-4457.5 3766.5)" fill="none" stroke="#aaa" stroke-width="1"/>
      <line id="선_9" data-name="선 9" x2="398" transform="translate(-4557 3939)" fill="none" stroke="#aaa" stroke-width="1"/>
    </g>
    <g id="그룹_119" data-name="그룹 119">
      <line id="선_19" data-name="선 19" x2="100" y2="173" transform="translate(-4557.5 4414.5)" fill="none" stroke="#3bd629" stroke-linecap="round" stroke-width="4"/>
      <line id="선_20" data-name="선 20" x2="99" y2="172" transform="translate(-4357.5 4415.5)" fill="none" stroke="#3bd629" stroke-linecap="round" stroke-width="4"/>
      <line id="선_21" data-name="선 21" x1="100" y2="173" transform="translate(-4258.5 4414.5)" fill="none" stroke="#3bd629" stroke-linecap="round" stroke-width="4"/>
      <line id="선_22" data-name="선 22" x1="99" y2="172" transform="translate(-4457.5 4415.5)" fill="none" stroke="#3bd629" stroke-linecap="round" stroke-width="4"/>
    </g>
  </g>
</svg>
