<?xml version="1.0" standalone="no"?>
<!DOCTYPE svg PUBLIC "-//W3C//DTD SVG 20010904//EN"
 "http://www.w3.org/TR/2001/REC-SVG-20010904/DTD/svg10.dtd">
<svg version="1.0" xmlns="http://www.w3.org/2000/svg"
 width="700.000000pt" height="700.000000pt" viewBox="0 0 700.000000 700.000000"
 preserveAspectRatio="xMidYMid meet">
<metadata>
Created by potrace 1.11, written by Peter Selinger 2001-2013
</metadata>
<g transform="translate(0.000000,700.000000) scale(0.100000,-0.100000)"
fill="#000000" stroke="none">
<path d="M972 4960 l-842 -1460 842 -1460 843 -1460 1685 0 1685 0 843 1460
842 1460 -842 1460 -843 1460 -1685 0 -1685 0 -843 -1460z m4026 1291 c-9 -22
-1494 -2590 -1498 -2590 -4 0 -1490 2568 -1498 2590 -2 5 661 9 1498 9 830 0
1500 -4 1498 -9z m-2388 -1362 c410 -710 747 -1295 748 -1300 2 -5 -592 -9
-1497 -9 -826 0 -1501 3 -1501 6 0 10 1494 2594 1500 2594 3 0 340 -581 750
-1291z m3283 -3 c411 -712 747 -1297 747 -1300 0 -3 -675 -6 -1501 -6 -909 0
-1499 4 -1497 9 7 22 1493 2591 1498 2591 3 0 342 -582 753 -1294z m-2535
-1475 c-8 -21 -1494 -2591 -1498 -2591 -5 0 -1500 2585 -1500 2595 0 3 675 5
1501 5 864 0 1499 -4 1497 -9z m3282 4 c0 -10 -1495 -2595 -1500 -2595 -4 0
-1490 2570 -1498 2591 -2 5 632 9 1497 9 826 0 1501 -2 1501 -5z m-2390 -1366
c410 -710 747 -1295 748 -1300 2 -5 -628 -9 -1498 -9 -881 0 -1500 4 -1498 9
8 22 1494 2591 1498 2591 3 0 340 -581 750 -1291z"/>
</g>
</svg>
